<svg xmlns="http://www.w3.org/2000/svg" version="1.1" xmlns:xlink="http://www.w3.org/1999/xlink" xmlns:svgjs="http://svgjs.dev/svgjs" width="2000" height="1247" viewBox="0 0 2000 1247"><g transform="matrix(1,0,0,1,-1.2121212121212466,0.504858299595071)"><svg viewBox="0 0 396 247" data-background-color="#ffffff" preserveAspectRatio="xMidYMid meet" height="1247" width="2000" xmlns="http://www.w3.org/2000/svg" xmlns:xlink="http://www.w3.org/1999/xlink"><g id="tight-bounds" transform="matrix(1,0,0,1,0.2400000000000091,-0.09999999999999432)"><svg viewBox="0 0 395.52 247.2" height="247.2" width="395.52"><g><svg></svg></g><g><svg viewBox="0 0 395.52 247.2" height="247.2" width="395.52"><g transform="matrix(1,0,0,1,75.54432,78.2244127358598)"><svg viewBox="0 0 244.43135999999998 90.75117452828039" height="90.75117452828039" width="244.43135999999998"><g><svg viewBox="0 0 408.89907740162636 151.81387338239998" height="90.75117452828039" width="244.43135999999998"><g transform="matrix(1,0,0,1,163.2455606016264,32.12400175873026)"><svg viewBox="0 0 245.65351679999995 87.56586986493946" height="87.56586986493946" width="245.65351679999995"><g id="textblocktransform"><svg viewBox="0 0 245.65351679999995 87.56586986493946" height="87.56586986493946" width="245.65351679999995" id="textblock"><g><rect width="245.65351679999995" height="4.3669045177444925" x="0" y="53.56801778076198" fill="#21c55e" opacity="1" stroke-width="0" stroke="transparent" fill-opacity="1" class="rect-qz-0" data-fill-palette-color="primary" rx="1%" id="qz-0" data-palette-color="#21c55e"></rect></g><g transform="matrix(1,0,0,1,0.6110783999999825,0)"><svg viewBox="0 0 244.43135999999998 48.423758532110085" height="48.423758532110085" width="244.43135999999998"><g transform="matrix(1,0,0,1,0,0)"><svg width="244.43135999999998" viewBox="4.7 -33.5 174.4 34.55" height="48.423758532110085" data-palette-color="#21c55e"><path d="M32.2 1.05L32.2 1.05Q27.55 1.05 23.7 0.58 19.85 0.1 16.2-0.78 12.55-1.65 8.45-2.9L8.45-2.9 7.05 0 4.7 0 4.7-14.05 7.05-14.05Q7.7-12.6 9.47-10.85 11.25-9.1 13.93-7.38 16.6-5.65 19.93-4.2 23.25-2.75 26.98-1.88 30.7-1 34.55-1L34.55-1Q36.5-1 38.43-1.18 40.35-1.35 41.63-1.9 42.9-2.45 42.9-3.5L42.9-3.5Q42.9-4.6 41.3-5.45 39.7-6.3 36.98-7.05 34.25-7.8 30.85-8.55 27.45-9.3 23.85-10.18 20.25-11.05 16.85-12.15 13.45-13.25 10.73-14.7 8-16.15 6.4-18.03 4.8-19.9 4.8-22.35L4.8-22.35Q4.8-25.65 6.3-27.75 7.8-29.85 10.33-31.03 12.85-32.2 15.95-32.73 19.05-33.25 22.28-33.38 25.5-33.5 28.35-33.5L28.35-33.5Q30.95-33.5 34.25-33.23 37.55-32.95 41-32.48 44.45-32 47.65-31.45 50.85-30.9 53.25-30.35L53.25-30.35 54.15-32.5 56.5-32.5 56.5-21.95 54.15-21.95Q53.45-23 51.38-24.25 49.3-25.5 46.4-26.78 43.5-28.05 40.23-29.1 36.95-30.15 33.75-30.8 30.55-31.45 27.9-31.45L27.9-31.45Q25.25-31.45 23.4-30.9 21.55-30.35 21.55-28.75L21.55-28.75Q21.55-27.45 23.1-26.6 24.65-25.75 27.28-25.18 29.9-24.6 33.18-24.08 36.45-23.55 39.93-22.93 43.4-22.3 46.68-21.35 49.95-20.4 52.58-18.98 55.2-17.55 56.75-15.43 58.3-13.3 58.3-10.3L58.3-10.3Q58.3-4.25 51.58-1.6 44.85 1.05 32.2 1.05ZM48.65-3.4L48.65-3.4 48.85-3.45 48.85-4.6Q48.85-7.2 47.2-8.75 45.55-10.3 42.73-11.23 39.9-12.15 36.33-12.88 32.75-13.6 28.85-14.55L28.85-14.55Q25.35-15.4 21.98-16.43 18.6-17.45 15.8-18.82 13-20.2 11.15-22.08 9.3-23.95 8.85-26.45L8.85-26.45 8.5-26.5Q8.2-25.85 8.03-24.85 7.85-23.85 7.85-23L7.85-23Q7.85-19.5 12.08-17 16.3-14.5 25.2-12.2L25.2-12.2Q30.75-10.8 34.68-9.9 38.6-9 41.28-8.22 43.95-7.45 45.7-6.35 47.45-5.25 48.65-3.4ZM84.15 0L62.35 0 62.35-2.15Q64-2.15 65.6-2.93 67.2-3.7 68.57-4.83 69.95-5.95 71-7.08 72.05-8.2 72.65-8.97 73.25-9.75 73.25-9.75L73.25-9.75 86.1-26.1 84.85-27.65Q83.75-29 82.45-29.68 81.15-30.35 78.7-30.35L78.7-30.35 74.75-30.35 74.75-32.5 103.35-32.5 127.85-2.15 133.55-2.15 133.55 0 96 0 96-2.15 99.7-2.15Q100.95-2.15 101.8-2.7 102.65-3.25 102.65-4.3L102.65-4.3Q102.65-5.6 101.2-7.4L101.2-7.4 99.35-9.7 77.2-9.7Q76.45-8.55 76.1-7.5 75.75-6.45 75.75-5.6L75.75-5.6Q75.75-3.95 76.82-3.05 77.9-2.15 79.5-2.15L79.5-2.15 84.15-2.15 84.15 0ZM86.7-30.35L109.45-2.15 113.3-2.15 90.55-30.35 86.7-30.35ZM88.05-23.7L79.1-12.1 97.45-12.1 88.05-23.7ZM179.1 0L136.55 0 136.55-2.15 142.65-2.15Q144.9-2.15 146.5-3.35 148.09-4.55 148.09-7.55L148.09-7.55 148.09-24.85Q148.09-26.35 147.37-27.6 146.65-28.85 145.4-29.6 144.15-30.35 142.65-30.35L142.65-30.35 136.55-30.35 136.55-32.5 179.1-32.5 179.1-30.35 173.05-30.35Q171.55-30.35 170.32-29.6 169.1-28.85 168.35-27.6 167.6-26.35 167.6-24.85L167.6-24.85 167.6-7.55Q167.6-4.55 169.2-3.35 170.8-2.15 173.05-2.15L173.05-2.15 179.1-2.15 179.1 0ZM151.45-30.35L151.45-2.15 154.7-2.15 154.7-30.35 151.45-30.35Z" opacity="1" transform="matrix(1,0,0,1,0,0)" fill="#21c55e" class="wordmark-text-0" data-fill-palette-color="primary" id="text-0"></path></svg></g></svg></g><g transform="matrix(1,0,0,1,0,63.07918154715836)"><svg viewBox="0 0 143.50565145599998 24.486688317781095" height="24.486688317781095" width="143.50565145599998"><g transform="matrix(1,0,0,1,0,0)"><svg width="143.50565145599998" viewBox="5.15 -24.45 147.09 25.099999999999998" height="24.486688317781095" data-palette-color="#21c55e"><path d="M21.85-7.2L24.15-12 23.9-14.25 22.9-16.95 22.8-17.55 22.45-18.1 19.2-21.05 18.55-21.5 11.4-23.15 6-23.15 5.15-22.25 5.15-10.5 5.15-7.9 5.15-0.5 6.55 0.5 10.3 0.1 17.45-2.65 21.1-6.55 21.3-7.1 21.85-7.2ZM17.55-16.95L18.75-15.7 18.75-9.75 18.25-8.15 17.2-6.6 15.85-5.25 13.25-4.75 11.15-4.1 11.3-6.75 11.3-17.25 11.7-19.25 15.45-18.9 17.55-16.95ZM31.05-17.9L31.05-17.9Q31.4-17.9 31.67-17.6 31.95-17.3 32.17-16.9 32.4-16.5 32.6-16.2 32.8-15.9 32.95-15.9L32.95-15.9Q33.45-16 34.47-16.32 35.5-16.65 36.72-17 37.95-17.35 39.12-17.6 40.3-17.85 41.05-17.85L41.05-17.85Q41.45-17.85 41.62-17.7 41.8-17.55 41.85-17.35 41.9-17.15 41.97-16.98 42.05-16.8 42.3-16.7L42.3-16.7Q42.4-16.55 42.6-16.43 42.8-16.3 42.8-16L42.8-16Q42.55-15.4 42.5-14.88 42.45-14.35 42.45-13.9L42.45-13.9 42.45-13.6 41-13.5Q40.65-13.45 40.3-13.43 39.95-13.4 39.5-13.4L39.5-13.4 38-12.55Q37.35-12.55 36.9-12.43 36.45-12.3 35.97-12.08 35.5-11.85 34.9-11.6 34.3-11.35 33.3-11.1L33.3-11.1Q30.9-9.9 29.72-8.2 28.55-6.5 28.55-4L28.55-4Q28.55-3.2 29.1-2.43 29.65-1.65 30.45-1.03 31.25-0.4 32.1-0.03 32.95 0.35 33.6 0.35L33.6 0.35Q34.35 0.35 35 0.38 35.65 0.4 36.3 0.4L36.3 0.4 39.05 0.4 39.1 0.4Q39.2 0.4 39.27 0.28 39.35 0.15 39.47-0.03 39.6-0.2 39.92-0.33 40.25-0.45 40.85-0.45L40.85-0.45Q41.5-0.45 42.2-0.08 42.9 0.3 43.4 0.3L43.4 0.3Q43.8 0.3 44.15 0.25 44.5 0.2 44.87 0.1 45.25 0 45.75-0.08 46.25-0.15 46.9-0.15L46.9-0.15Q47.05 0.1 47.45 0.3L47.45 0.3 48.15 0.3Q48.2 0.05 48.35-0.18 48.5-0.4 48.7-0.8L48.7-0.8Q48.65-1.95 48.57-2.85 48.5-3.75 48.47-4.58 48.45-5.4 48.42-6.3 48.4-7.2 48.35-8.35L48.35-8.35 48.5-8.35Q48.55-8.4 48.6-8.4L48.6-8.4Q48.45-8.4 48.35-8.8 48.25-9.2 48.2-9.63 48.15-10.05 48.12-10.43 48.1-10.8 48.1-10.8L48.1-10.8Q48.05-11.2 47.92-11.43 47.8-11.65 47.67-11.98 47.55-12.3 47.42-12.9 47.3-13.5 47.25-14.85L47.25-14.85Q47.1-14.95 47-15.45 46.9-15.95 46.82-16.53 46.75-17.1 46.72-17.63 46.7-18.15 46.65-18.25L46.65-18.25 46.55-18.25Q46.15-18.25 45.9-18.7 45.65-19.15 45.45-19.7 45.25-20.25 45.1-20.68 44.95-21.1 44.75-21.1L44.75-21.1Q44.65-21.2 44.55-21.33 44.45-21.45 44.35-21.55L44.35-21.55 43.55-21.55Q43.05-21.55 42.72-21.55 42.4-21.55 42.12-21.55 41.85-21.55 41.55-21.6 41.25-21.65 40.8-21.75L40.8-21.75Q40.75-21.5 40.22-21.43 39.7-21.35 39.07-21.35 38.45-21.35 37.92-21.35 37.4-21.35 37.35-21.2L37.35-21.2Q36-20.75 34.9-20.45 33.8-20.15 33.05-19.83 32.3-19.5 31.8-19.07 31.3-18.65 31.05-17.9ZM41.9-9.5L41.9-9.5 41.9-6.95Q41.65-6.15 41.6-5.3 41.55-4.45 41.55-4.05L41.55-4.05 41.55-3.65 40.85-3.65Q39.85-3.55 39-3.5 38.15-3.45 37.35-3.4L37.35-3.4 33.85-3.2Q33.5-3.8 33.27-4.15 33.05-4.5 33.05-5.2L33.05-5.2Q33.05-6.6 33.42-7.4 33.8-8.2 34.47-8.63 35.15-9.05 36.05-9.25 36.95-9.45 37.95-9.7L37.95-9.7Q38.45-9.85 38.87-9.95 39.3-10.05 39.7-10.05L39.7-10.05 39.9-10.05Q40.4-9.9 40.92-9.75 41.45-9.6 41.9-9.5ZM65.5-4.55L65.5-11.7 66.8-11.75Q67.05-11.65 67.25-11.6 67.45-11.55 67.8-11.55L67.8-11.55Q68-11.55 68.22-11.6 68.45-11.65 68.67-11.7 68.9-11.75 69.27-11.78 69.65-11.8 70.25-11.8L70.25-11.8Q70.45-11.8 70.62-11.78 70.8-11.75 70.9-11.75L70.9-11.75Q70.95-11.75 71.02-11.75 71.09-11.75 71.4-11.95L71.4-11.95Q71.15-11.95 71.15-12.3L71.15-12.3Q71.15-12.35 71.2-12.6 71.25-12.85 71.25-12.95L71.25-12.95Q71.2-12.95 71.2-13.2L71.2-13.2Q71.2-13.4 71.3-13.5L71.3-13.5Q70.95-13.75 70.95-14.03 70.95-14.3 70.75-14.6L70.75-14.6Q70.45-14.5 70.3-14.5L70.3-14.5Q69.95-14.5 69.82-14.53 69.7-14.55 69.55-14.6 69.4-14.65 69.02-14.68 68.65-14.7 67.8-14.75L67.8-14.75Q67.2-14.8 66.34-14.85 65.5-14.9 64.5-15L64.5-15 64-20.55 63.55-21.2 60.25-20.9 59.45-19.75 59.3-15.25Q58.59-15.25 57.95-15.28 57.3-15.3 56.7-15.3L56.7-15.3Q56.2-15.15 56.15-15.15L56.15-15.15Q55.7-15.15 55.34-15.15 55-15.15 54.65-15.25L54.65-15.25 53.84-15.25 53.09-14.6Q53.09-14.2 53.09-13.7 53.09-13.2 53.17-12.7 53.25-12.2 53.4-11.83 53.55-11.45 53.8-11.35L53.8-11.35 54.2-11Q54.7-11 54.95-11.03 55.2-11.05 55.84-11.15L55.84-11.15Q55.9-11.25 56.3-11.25L56.3-11.25Q56.59-11.25 56.92-11.2 57.25-11.15 57.34-11.1L57.34-11.1Q57.5-11.1 57.67-11.13 57.84-11.15 58.05-11.15L58.05-11.15 58.75-11.2 58.55-10.2 58.55-3.7 58.75-0.85 59.3 0.3 60.55 0.1 64.65 0.4 67.45 0Q67.75-0.85 67.75-1.7L67.75-1.7Q67.75-2.55 67.45-3.5L67.45-3.5 65.5-4.55ZM77.04-17.9L77.04-17.9Q77.39-17.9 77.67-17.6 77.94-17.3 78.17-16.9 78.39-16.5 78.59-16.2 78.79-15.9 78.94-15.9L78.94-15.9Q79.44-16 80.47-16.32 81.49-16.65 82.72-17 83.94-17.35 85.12-17.6 86.29-17.85 87.04-17.85L87.04-17.85Q87.44-17.85 87.62-17.7 87.79-17.55 87.84-17.35 87.89-17.15 87.97-16.98 88.04-16.8 88.29-16.7L88.29-16.7Q88.39-16.55 88.59-16.43 88.79-16.3 88.79-16L88.79-16Q88.54-15.4 88.49-14.88 88.44-14.35 88.44-13.9L88.44-13.9 88.44-13.6 86.99-13.5Q86.64-13.45 86.29-13.43 85.94-13.4 85.49-13.4L85.49-13.4 83.99-12.55Q83.34-12.55 82.89-12.43 82.44-12.3 81.97-12.08 81.49-11.85 80.89-11.6 80.29-11.35 79.29-11.1L79.29-11.1Q76.89-9.9 75.72-8.2 74.54-6.5 74.54-4L74.54-4Q74.54-3.2 75.09-2.43 75.64-1.65 76.44-1.03 77.24-0.4 78.09-0.03 78.94 0.35 79.59 0.35L79.59 0.35Q80.34 0.35 80.99 0.38 81.64 0.4 82.29 0.4L82.29 0.4 85.04 0.4 85.09 0.4Q85.19 0.4 85.27 0.28 85.34 0.15 85.47-0.03 85.59-0.2 85.92-0.33 86.24-0.45 86.84-0.45L86.84-0.45Q87.49-0.45 88.19-0.08 88.89 0.3 89.39 0.3L89.39 0.3Q89.79 0.3 90.14 0.25 90.49 0.2 90.87 0.1 91.24 0 91.74-0.08 92.24-0.15 92.89-0.15L92.89-0.15Q93.04 0.1 93.44 0.3L93.44 0.3 94.14 0.3Q94.19 0.05 94.34-0.18 94.49-0.4 94.69-0.8L94.69-0.8Q94.64-1.95 94.57-2.85 94.49-3.75 94.47-4.58 94.44-5.4 94.42-6.3 94.39-7.2 94.34-8.35L94.34-8.35 94.49-8.35Q94.54-8.4 94.59-8.4L94.59-8.4Q94.44-8.4 94.34-8.8 94.24-9.2 94.19-9.63 94.14-10.05 94.12-10.43 94.09-10.8 94.09-10.8L94.09-10.8Q94.04-11.2 93.92-11.43 93.79-11.65 93.67-11.98 93.54-12.3 93.42-12.9 93.29-13.5 93.24-14.85L93.24-14.85Q93.09-14.95 92.99-15.45 92.89-15.95 92.82-16.53 92.74-17.1 92.72-17.63 92.69-18.15 92.64-18.25L92.64-18.25 92.54-18.25Q92.14-18.25 91.89-18.7 91.64-19.15 91.44-19.7 91.24-20.25 91.09-20.68 90.94-21.1 90.74-21.1L90.74-21.1Q90.64-21.2 90.54-21.33 90.44-21.45 90.34-21.55L90.34-21.55 89.54-21.55Q89.04-21.55 88.72-21.55 88.39-21.55 88.12-21.55 87.84-21.55 87.54-21.6 87.24-21.65 86.79-21.75L86.79-21.75Q86.74-21.5 86.22-21.43 85.69-21.35 85.07-21.35 84.44-21.35 83.92-21.35 83.39-21.35 83.34-21.2L83.34-21.2Q81.99-20.75 80.89-20.45 79.79-20.15 79.04-19.83 78.29-19.5 77.79-19.07 77.29-18.65 77.04-17.9ZM87.89-9.5L87.89-9.5 87.89-6.95Q87.64-6.15 87.59-5.3 87.54-4.45 87.54-4.05L87.54-4.05 87.54-3.65 86.84-3.65Q85.84-3.55 84.99-3.5 84.14-3.45 83.34-3.4L83.34-3.4 79.84-3.2Q79.49-3.8 79.27-4.15 79.04-4.5 79.04-5.2L79.04-5.2Q79.04-6.6 79.42-7.4 79.79-8.2 80.47-8.63 81.14-9.05 82.04-9.25 82.94-9.45 83.94-9.7L83.94-9.7Q84.44-9.85 84.87-9.95 85.29-10.05 85.69-10.05L85.69-10.05 85.89-10.05Q86.39-9.9 86.92-9.75 87.44-9.6 87.89-9.5ZM135.74-0.4L137.14-0.55Q136.74-2.55 136.44-4.17 136.14-5.8 135.86-7.35 135.59-8.9 135.29-10.6 134.99-12.3 134.59-14.35L134.59-14.35Q134.34-14.65 134.19-15.2 134.04-15.75 133.94-16.35 133.84-16.95 133.76-17.57 133.69-18.2 133.64-18.6L133.64-18.6Q133.49-19.5 133.29-20.7 133.09-21.9 132.49-22.95L132.49-22.95Q132.34-23.15 132.01-23.63 131.69-24.1 131.64-24.2L131.64-24.2Q130.99-24.2 130.49-24.23 129.99-24.25 129.49-24.28 128.99-24.3 128.46-24.33 127.94-24.35 127.24-24.4L127.24-24.4Q126.74-24.4 126.46-24.4 126.19-24.4 125.89-24.45L125.89-24.45Q125.69-24.45 125.49-24.45L125.49-24.45 125.14-24.45Q124.09-22.95 123.14-21.68 122.19-20.4 121.34-19.15 120.49-17.9 119.71-16.45 118.94-15 118.24-13.1L118.24-13.1Q117.59-11.4 117.01-10.65 116.44-9.9 116.19-9.35L116.19-9.35Q115.64-8.35 115.31-7.68 114.99-7 114.49-6L114.49-6 113.74-3.65Q113.54-3.1 113.36-2.55 113.19-2 112.99-1.35L112.99-1.35Q113.04-0.9 113.09-0.63 113.14-0.35 113.24 0L113.24 0 118.54 0Q118.94-1.05 119.29-1.9 119.64-2.75 119.96-3.58 120.29-4.4 120.64-5.3 120.99-6.2 121.44-7.3L121.44-7.3Q121.74-7.6 122.31-7.7 122.89-7.8 123.59-7.83 124.29-7.85 125.06-7.85 125.84-7.85 126.49-7.85L126.49-7.85Q127.54-7.85 128.61-7.88 129.69-7.9 130.74-7.95L130.74-7.95Q130.84-7.3 130.91-6.7 130.99-6.1 130.99-5.9L130.99-5.9Q130.99-5.7 130.89-5.65 130.79-5.6 130.79-5.15L130.79-5.15Q130.79-3.8 130.94-2.78 131.09-1.75 131.29-0.55L131.29-0.55 132.84-0.4Q133.14-0.35 133.49-0.33 133.84-0.3 134.34-0.3L134.34-0.3Q134.79-0.3 135.11-0.38 135.44-0.45 135.74-0.4L135.74-0.4ZM130.29-11L130.29-11 130.04-10.7 127.89-10.7Q127.29-10.7 126.71-10.73 126.14-10.75 125.79-10.75L125.79-10.75Q124.54-10.65 123.49-10.65L123.49-10.65Q123.49-10.7 123.46-10.73 123.44-10.75 123.44-10.8L123.44-10.8 123.44-10.85 124.14-12.35Q124.64-13.7 125.34-15.08 126.04-16.45 126.99-17.3L126.99-17.3Q127.29-17.55 127.61-17.85 127.94-18.15 128.19-18.6L128.19-18.6Q128.39-18.6 128.54-18.57 128.69-18.55 128.74-18.55L128.74-18.55 128.89-18.55 128.89-18.5Q128.89-18.4 129.04-18.35L129.04-18.35Q129.19-17.15 129.54-16.3 129.89-15.45 129.99-14.65L129.99-14.65 130.09-12.85Q130.14-12.4 130.16-11.98 130.19-11.55 130.29-11ZM151.94-2.9L152.24-6.3 151.94-7.55 151.69-9.45 151.79-9.8 151.79-13.8 151.34-16.1 151.34-22.5 150.69-23.8 149.79-23.8 149.34-23.4 147.34-23.75 146.44-23 146.44-0.5 145.94 0.65 146.69 0.65 147.29 0.2 151.14 0.2 152.14-0.65 151.94-2.9Z" opacity="1" transform="matrix(1,0,0,1,0,0)" fill="#21c55e" class="slogan-text-1" data-fill-palette-color="secondary" id="text-1"></path></svg></g></svg></g></svg></g></svg></g><g><svg viewBox="0 0 151.81387338239998 151.81387338239998" height="151.81387338239998" width="151.81387338239998"><g><svg xmlns="http://www.w3.org/2000/svg" xmlns:xlink="http://www.w3.org/1999/xlink" version="1.1" x="0" y="0" viewBox="3 3.0069999999999997 58 58" style="enable-background:new 0 0 64 64;" xml:space="preserve" height="151.81387338239998" width="151.81387338239998" class="icon-icon-0" data-fill-palette-color="accent" id="icon-0"><g fill="#21c55e" data-fill-palette-color="accent"><rect x="3" y="7.007" width="12" height="10" fill="#21c55e" data-fill-palette-color="accent"></rect><path d="M15 4.007c0-0.552-0.448-1-1-1H4c-0.552 0-1 0.448-1 1v1h12V4.007z" fill="#21c55e" data-fill-palette-color="accent"></path><path d="M60 3.007H46c-0.552 0-1 0.448-1 1v7h16v-7C61 3.456 60.552 3.007 60 3.007z" fill="#21c55e" data-fill-palette-color="accent"></path><path d="M45 14.007c0 0.552 0.448 1 1 1h14c0.552 0 1-0.448 1-1v-1H45V14.007z" fill="#21c55e" data-fill-palette-color="accent"></path><path d="M3 60.007c0 0.552 0.448 1 1 1h16c0.552 0 1-0.448 1-1v-1H3V60.007z" fill="#21c55e" data-fill-palette-color="accent"></path><path d="M49 61.007h12v-6H49V61.007zM57 57.007h2v2h-2V57.007zM51 57.007h4v2h-4V57.007z" fill="#21c55e" data-fill-palette-color="accent"></path><path d="M56 35.007h-7.092c-0.121-0.719-0.368-1.393-0.721-2H54v-14h3v-2h-8v2h3v12h-5.732c-0.702-0.459-1.494-0.792-2.359-0.924C43.963 29.732 44 29.374 44 29.007c0-3.866-3.134-7-7-7-2.808 0-5.222 1.657-6.338 4.043-1.066-0.657-2.318-1.043-3.662-1.043-3.17 0-5.839 2.11-6.701 5H10v-5h4c0.552 0 1-0.448 1-1v-5H3v5c0 0.552 0.448 1 1 1h4v7h8.531c-0.516 0.576-0.911 1.256-1.175 2H10v13H6c-0.552 0-1 0.448-1 1v9h14v-9c0-0.552-0.448-1-1-1h-6v-11h3c0 3.314 2.686 6 6 6h22c2.972 0 5.433-2.163 5.91-5H54v10h-5v6h12v-6h-5V35.007zM7 21.007h4v2H7V21.007zM53 51.007h-2v-2h2V51.007zM59 51.007h-4v-2h4V51.007z" fill="#21c55e" data-fill-palette-color="accent"></path></g></svg></g></svg></g></svg></g></svg></g><g><path d="M0 123.6c0-68.262 55.338-123.6 123.6-123.6 50.934 0 94.673 30.809 113.596 74.808h-1.422c-18.843-43.259-61.976-73.502-112.174-73.503-67.542 0-122.295 54.753-122.295 122.295 0 67.542 54.753 122.295 122.295 122.295 50.197 0 93.331-30.243 112.174-73.503l1.422 0c-18.924 43.999-62.662 74.808-113.596 74.808-68.262 0-123.6-55.338-123.6-123.6z" fill="#21c55e" stroke="transparent" data-fill-palette-color="tertiary"></path></g></svg></g><defs></defs></svg><rect width="395.52" height="247.2" fill="none" stroke="none" visibility="hidden"></rect></g></svg></g></svg>